<svg xmlns="http://www.w3.org/2000/svg" width="438.16" height="88.43" viewBox="0 0 438.16 88.43"><title>Lockup</title><polygon points="77.58 28.76 116.62 5.09 116.62 2.46 75.36 27.47 77.58 28.76" fill="#e0ff4f"/><polygon points="83.5 32.2 116.62 12.13 116.62 9.5 81.29 30.91 83.5 32.2" fill="#e0ff4f"/><polygon points="89.43 35.63 116.62 19.17 116.62 16.55 87.22 34.35 89.43 35.63" fill="#e0ff4f"/><polygon points="95.36 39.07 116.62 26.21 116.62 23.59 93.14 37.79 95.36 39.07" fill="#e0ff4f"/><polygon points="99.07 41.23 101.29 42.51 116.62 33.25 116.62 30.63 99.07 41.23" fill="#e0ff4f"/><polygon points="67.07 59.67 28.02 83.34 28.02 85.97 69.28 60.96 67.07 59.67" fill="#e0ff4f"/><polygon points="61.14 56.23 28.02 76.3 28.02 78.92 63.35 57.52 61.14 56.23" fill="#e0ff4f"/><polygon points="55.22 52.79 28.02 69.26 28.02 71.88 57.43 54.08 55.22 52.79" fill="#e0ff4f"/><polygon points="49.29 49.35 28.02 62.22 28.02 64.84 51.5 50.64 49.29 49.35" fill="#e0ff4f"/><polygon points="45.57 47.2 43.36 45.92 28.02 55.18 28.02 57.8 45.57 47.2" fill="#e0ff4f"/><polygon points="24.34 2.64 144.65 72.42 120.3 85.86 0 16.08 24.34 2.64" fill="#11173d"/><polygon points="0 20.78 0 74.58 24 88.43 24 34.63 0 20.78" fill="#11173d"/><polygon points="144.65 67.65 144.65 13.85 120.65 0 120.65 53.8 144.65 67.65" fill="#11173d"/><path d="M181.81,14s1,1.27,1.27,1.62l21.58,27.29c-.09-.87-.15-1.72-.19-2.54s-.06-1.59-.06-2.32V14h9.29V59.41h-7.78L183.11,30.59c.06.8.11,1.57.15,2.33s.07,1.47.07,2.13V59.41H174V14h7.78Z" fill="#11173d"/><path d="M271.31,14v8.11H252.66v10.6h14.28v7.8H252.66V51.3h18.65v8.11H242.05V14Z" fill="#11173d"/><path d="M307.89,51h16.85v8.42H297.35V14h10.54Z" fill="#11173d"/><path d="M375,14v8.36H362.17V58.87a.54.54,0,0,1-.54.54h-10V22.33H338.84V14Z" fill="#11173d"/><path d="M410.1,23.33c-.33,1.27-11.29,33.81-11.29,33.81-.23.58-.73,2.26-.72,2.27H387.15L404.74,14h10.79l17.59,45.44H422.23S410.45,24.58,410.1,23.33Z" fill="#11173d"/><path d="M433.62,18c-.05-.11-.3-.5-.31-.52a1.49,1.49,0,0,0,.78-.56,1.62,1.62,0,0,0,.28-1,1.4,1.4,0,0,0-.53-1.18,2.82,2.82,0,0,0-1.69-.41h-2v5.52h1.33v-2h.34a.5.5,0,0,1,.23,0,.44.44,0,0,1,.13.14l1,1.82h1.53ZM433,16.43a.54.54,0,0,1-.16.26.64.64,0,0,1-.31.15,1.9,1.9,0,0,1-.52.06h-.54V15.32h.65a2.05,2.05,0,0,1,.47,0,.67.67,0,0,1,.28.14.56.56,0,0,1,.13.24,1.18,1.18,0,0,1,0,.34A1.25,1.25,0,0,1,433,16.43Z" fill="#11173d"/><path d="M432.1,12.33a4.73,4.73,0,0,1,1.26.17,4.44,4.44,0,0,1,1.14.48,4.74,4.74,0,0,1,2.18,2.84,4.45,4.45,0,0,1,.17,1.26,4.36,4.36,0,0,1-.17,1.26,4.44,4.44,0,0,1-.48,1.14,4.26,4.26,0,0,1-.74.95,5,5,0,0,1-1,.75,5.27,5.27,0,0,1-1.14.48,4.75,4.75,0,0,1-2.52,0,5.19,5.19,0,0,1-1.13-.48,5,5,0,0,1-1-.75,4.62,4.62,0,0,1-.75-.95,5.41,5.41,0,0,1-.48-1.13,4.79,4.79,0,0,1,0-2.53,5.49,5.49,0,0,1,.48-1.14,5,5,0,0,1,.75-1,4.56,4.56,0,0,1,1-.74,4.37,4.37,0,0,1,1.13-.48,4.73,4.73,0,0,1,1.26-.17m0-1.31a5.81,5.81,0,0,0-1.62.22,6,6,0,0,0-2.66,1.56,6.25,6.25,0,0,0-.95,1.22,6.64,6.64,0,0,0-.61,1.45,6.13,6.13,0,0,0-.21,1.61,5.76,5.76,0,0,0,.22,1.62,5.57,5.57,0,0,0,.61,1.44,6.11,6.11,0,0,0,.94,1.22,6,6,0,0,0,2.66,1.56,6.21,6.21,0,0,0,1.62.22,6.13,6.13,0,0,0,1.61-.22,6.44,6.44,0,0,0,1.45-.61,6,6,0,0,0,1.23-.95,6.51,6.51,0,0,0,.94-1.22,5.94,5.94,0,0,0,.61-1.44,5.86,5.86,0,0,0,.22-1.62,5.79,5.79,0,0,0-.22-1.61,6.19,6.19,0,0,0-.61-1.45,5.89,5.89,0,0,0-.95-1.22,5.64,5.64,0,0,0-1.22-1,6,6,0,0,0-1.45-.61A5.74,5.74,0,0,0,432.1,11Z" fill="#11173d"/><path d="M179.06,77.11l.12.29.12-.3a2.39,2.39,0,0,1,.13-.28L182.12,72a.28.28,0,0,1,.14-.16l.23,0h.79v7.92h-.94V73.62c0-.09,0-.18,0-.27l-2.71,5a.42.42,0,0,1-.39.25h-.16a.4.4,0,0,1-.38-.25l-2.78-5,0,.28v6.08H175V71.77h.79l.23,0a.28.28,0,0,1,.14.16l2.74,4.88A2.39,2.39,0,0,1,179.06,77.11Z" fill="#11173d"/><path d="M199.15,79.69h-.83a.35.35,0,0,1-.23-.07.46.46,0,0,1-.13-.18l-.74-1.92h-3.56l-.74,1.92a.34.34,0,0,1-.13.17.36.36,0,0,1-.23.08h-.83l3.17-7.92H196ZM194,76.75h3l-1.25-3.22a2.27,2.27,0,0,1-.11-.34c0-.12-.08-.26-.12-.4l-.12.41c0,.12-.08.24-.12.33Z" fill="#11173d"/><path d="M212.56,79.57a5,5,0,0,1-1.48.21,4.72,4.72,0,0,1-1.73-.3,3.65,3.65,0,0,1-2.15-2.11,4.52,4.52,0,0,1-.29-1.64,4.61,4.61,0,0,1,.28-1.65A3.59,3.59,0,0,1,208,72.8a3.63,3.63,0,0,1,1.28-.83,4.7,4.7,0,0,1,1.68-.29,4.79,4.79,0,0,1,.87.07,3.91,3.91,0,0,1,1.39.51,4.34,4.34,0,0,1,.54.42l-.3.49a.34.34,0,0,1-.18.14.33.33,0,0,1-.26-.06l-.3-.18a2,2,0,0,0-.42-.22,4.58,4.58,0,0,0-.58-.17,3.68,3.68,0,0,0-.79-.07,3.11,3.11,0,0,0-1.21.22,2.58,2.58,0,0,0-.93.62,2.7,2.7,0,0,0-.58,1,3.71,3.71,0,0,0-.21,1.29,3.77,3.77,0,0,0,.22,1.34,2.6,2.6,0,0,0,1.56,1.63,3.64,3.64,0,0,0,1.27.21,4.28,4.28,0,0,0,.52,0,3.4,3.4,0,0,0,.46-.09,2.6,2.6,0,0,0,.42-.15,3.89,3.89,0,0,0,.42-.19V76.7h-1.23a.22.22,0,0,1-.17-.06.18.18,0,0,1-.07-.15v-.61h2.44v3A4.69,4.69,0,0,1,212.56,79.57Z" fill="#11173d"/><path d="M223.56,71.78l.09,0,.08.06.08.09,4.59,6c0-.1,0-.19,0-.28a2.35,2.35,0,0,1,0-.26V71.77h.94v7.92h-.54a.46.46,0,0,1-.21,0,.47.47,0,0,1-.17-.15l-4.58-6c0,.09,0,.18,0,.27a2.18,2.18,0,0,1,0,.25v5.64h-.94V71.77h.67Z" fill="#11173d"/><path d="M239.81,79.69h-1.07V71.77h1.07Z" fill="#11173d"/><path d="M254.13,71.77v.87h-3.81v2.77h3.25v.87h-3.25v3.41h-1.08V71.77Z" fill="#11173d"/><path d="M264,79.69h-1.07V71.77H264Z" fill="#11173d"/><path d="M278.29,71.77v.87h-3.81v2.63h3.09v.84h-3.09v2.71h3.82v.87h-4.88V71.77Z" fill="#11173d"/><path d="M294.07,75.73a4.37,4.37,0,0,1-.28,1.62A3.65,3.65,0,0,1,293,78.6a3.6,3.6,0,0,1-1.24.81,4.3,4.3,0,0,1-1.6.28h-3V71.77h3a4.3,4.3,0,0,1,1.6.28,3.6,3.6,0,0,1,1.24.81,3.65,3.65,0,0,1,.79,1.25A4.45,4.45,0,0,1,294.07,75.73Zm-1.1,0a4,4,0,0,0-.19-1.3,2.94,2.94,0,0,0-.57-1,2.46,2.46,0,0,0-.88-.6,3.13,3.13,0,0,0-1.17-.21h-1.88v6.18h1.88a3.13,3.13,0,0,0,1.17-.21,2.46,2.46,0,0,0,.88-.6,3,3,0,0,0,.57-1A4.1,4.1,0,0,0,293,75.73Z" fill="#11173d"/><path d="M318.15,71.77v.87h-3.81v2.63h3.08v.84h-3.08v2.71h3.81v.87h-4.88V71.77Z" fill="#11173d"/><path d="M331.06,71.77v.87h-3.81v2.77h3.25v.87h-3.25v3.41h-1.07V71.77Z" fill="#11173d"/><path d="M343.83,71.77v.87H340v2.77h3.25v.87H340v3.41H339V71.77Z" fill="#11173d"/><path d="M352.8,79.69h-1.07V71.77h1.07Z" fill="#11173d"/><path d="M366.91,78.05a.23.23,0,0,1,.16.08l.42.45a3.24,3.24,0,0,1-1.18.88,4,4,0,0,1-1.67.32,3.86,3.86,0,0,1-1.55-.3,3.24,3.24,0,0,1-1.19-.83,3.63,3.63,0,0,1-.76-1.28,4.74,4.74,0,0,1-.27-1.64,4.55,4.55,0,0,1,.28-1.64,3.55,3.55,0,0,1,.79-1.28,3.6,3.6,0,0,1,1.22-.84,4.27,4.27,0,0,1,1.58-.29,3.81,3.81,0,0,1,1.49.27,3.68,3.68,0,0,1,1.14.74l-.35.49a.38.38,0,0,1-.09.09.26.26,0,0,1-.14,0,.45.45,0,0,1-.24-.1,2.09,2.09,0,0,0-.38-.24,2.83,2.83,0,0,0-1.44-.35,2.94,2.94,0,0,0-1.12.21,2.35,2.35,0,0,0-.87.62,2.8,2.8,0,0,0-.58,1,4.14,4.14,0,0,0-.2,1.31,3.81,3.81,0,0,0,.21,1.32,2.86,2.86,0,0,0,.58,1,2.53,2.53,0,0,0,.87.62,2.77,2.77,0,0,0,1.08.21,4.06,4.06,0,0,0,.64,0,2.17,2.17,0,0,0,.53-.13,2,2,0,0,0,.44-.22,3.9,3.9,0,0,0,.42-.32A.26.26,0,0,1,366.91,78.05Z" fill="#11173d"/><path d="M376.33,79.69h-1.07V71.77h1.07Z" fill="#11173d"/><path d="M389.76,71.77v.87H386v2.63H389v.84H386v2.71h3.81v.87h-4.88V71.77Z" fill="#11173d"/><path d="M398.47,71.78l.09,0,.08.06.08.09,4.58,6c0-.1,0-.19,0-.28s0-.18,0-.26V71.77h.94v7.92h-.53a.48.48,0,0,1-.22,0,.55.55,0,0,1-.16-.15l-4.59-6a2.45,2.45,0,0,1,0,.27v5.89h-.94V71.77h.68Z" fill="#11173d"/><path d="M418.32,78.05a.23.23,0,0,1,.16.08l.42.45a3.24,3.24,0,0,1-1.18.88,4,4,0,0,1-1.67.32,3.86,3.86,0,0,1-1.55-.3,3.24,3.24,0,0,1-1.19-.83,3.63,3.63,0,0,1-.76-1.28,4.86,4.86,0,0,1,0-3.28,3.55,3.55,0,0,1,.79-1.28,3.6,3.6,0,0,1,1.22-.84,4.23,4.23,0,0,1,1.58-.29,3.85,3.85,0,0,1,1.49.27,3.8,3.8,0,0,1,1.14.74l-.35.49a.38.38,0,0,1-.09.09.26.26,0,0,1-.14,0,.42.42,0,0,1-.24-.1,2.09,2.09,0,0,0-.38-.24,2.82,2.82,0,0,0-1.43-.35,2.92,2.92,0,0,0-1.13.21,2.35,2.35,0,0,0-.87.62,2.8,2.8,0,0,0-.58,1,4.14,4.14,0,0,0-.2,1.31,3.81,3.81,0,0,0,.21,1.32,2.86,2.86,0,0,0,.58,1,2.53,2.53,0,0,0,.87.62,2.77,2.77,0,0,0,1.08.21,4.06,4.06,0,0,0,.64,0,2.17,2.17,0,0,0,.53-.13,2.26,2.26,0,0,0,.44-.22,3.9,3.9,0,0,0,.42-.32A.26.26,0,0,1,418.32,78.05Z" fill="#11173d"/><path d="M429.65,76.53v3.16h-1.08V76.53l-2.9-4.76h.94a.33.33,0,0,1,.23.07A.54.54,0,0,1,427,72l1.82,3.08c.06.12.12.25.18.36l.14.33c0-.11.08-.22.13-.33s.11-.24.18-.36L431.24,72a.59.59,0,0,1,.14-.18.32.32,0,0,1,.22-.07h.95Z" fill="#11173d"/></svg>