<svg xmlns="http://www.w3.org/2000/svg" width="144.65" height="88.43" viewBox="0 0 144.65 88.43"><title>Logomark</title><polygon points="77.58 28.76 116.62 5.09 116.62 2.46 75.36 27.47 77.58 28.76" fill="#e0ff4f"/><polygon points="83.5 32.2 116.62 12.13 116.62 9.5 81.29 30.91 83.5 32.2" fill="#e0ff4f"/><polygon points="89.43 35.63 116.62 19.17 116.62 16.55 87.22 34.35 89.43 35.63" fill="#e0ff4f"/><polygon points="95.36 39.07 116.62 26.21 116.62 23.59 93.14 37.79 95.36 39.07" fill="#e0ff4f"/><polygon points="99.07 41.23 101.29 42.51 116.62 33.25 116.62 30.63 99.07 41.23" fill="#e0ff4f"/><polygon points="67.07 59.67 28.02 83.34 28.02 85.97 69.28 60.96 67.07 59.67" fill="#e0ff4f"/><polygon points="61.14 56.23 28.02 76.3 28.02 78.92 63.35 57.52 61.14 56.23" fill="#e0ff4f"/><polygon points="55.22 52.79 28.02 69.26 28.02 71.88 57.43 54.08 55.22 52.79" fill="#e0ff4f"/><polygon points="49.29 49.35 28.02 62.22 28.02 64.84 51.5 50.64 49.29 49.35" fill="#e0ff4f"/><polygon points="45.57 47.2 43.36 45.92 28.02 55.18 28.02 57.8 45.57 47.2" fill="#e0ff4f"/><polygon points="24.34 2.64 144.65 72.42 120.3 85.86 0 16.08 24.34 2.64" fill="#11173d"/><polygon points="0 20.78 0 74.58 24 88.43 24 34.63 0 20.78" fill="#11173d"/><polygon points="144.65 67.65 144.65 13.85 120.65 0 120.65 53.8 144.65 67.65" fill="#11173d"/></svg>