<svg xmlns="http://www.w3.org/2000/svg" width="264.13" height="68.76" viewBox="0 0 264.13 68.76"><title>Wordmark</title><path d="M7.78,3S8.75,4.22,9,4.57L30.63,31.86c-.09-.87-.15-1.72-.19-2.54s-.06-1.59-.06-2.32V3h9.29V48.39H31.89L9.08,19.57c.06.8.11,1.57.15,2.33s.06,1.47.06,2.13V48.39H0V3H7.78Z" fill="#11173d"/><path d="M97.28,3v8.11H78.63v10.6H92.91v7.8H78.63V40.28H97.28v8.11H68V3Z" fill="#11173d"/><path d="M133.86,40H150.7v8.42H123.32V3h10.54Z" fill="#11173d"/><path d="M200.93,3v8.36H188.14V47.85a.55.55,0,0,1-.55.54h-10V11.31H164.81V3Z" fill="#11173d"/><path d="M236.07,12.31c-.33,1.27-11.29,33.81-11.29,33.81-.23.58-.74,2.26-.73,2.27H213.11L230.7,3h10.8l17.59,45.44H248.2S236.42,13.56,236.07,12.31Z" fill="#11173d"/><path d="M259.59,6.93c-.06-.11-.31-.5-.31-.51a1.57,1.57,0,0,0,.78-.57,1.62,1.62,0,0,0,.28-1,1.42,1.42,0,0,0-.53-1.18,2.82,2.82,0,0,0-1.69-.41h-2V8.82h1.33v-2h.33a.45.45,0,0,1,.23,0,.38.38,0,0,1,.14.14l1,1.82h1.53ZM259,5.41a.54.54,0,0,1-.16.26.69.69,0,0,1-.31.15,1.9,1.9,0,0,1-.52.06h-.54V4.3h.65a1.91,1.91,0,0,1,.46,0,.61.61,0,0,1,.28.14.49.49,0,0,1,.14.24,1.18,1.18,0,0,1,0,.34A1.78,1.78,0,0,1,259,5.41Z" fill="#11173d"/><path d="M258.07,1.31a4.85,4.85,0,0,1,1.26.17,4.73,4.73,0,0,1,2.84,2.18,4.59,4.59,0,0,1,.48,1.14,4.85,4.85,0,0,1,.17,1.26,4.73,4.73,0,0,1-.17,1.26,4.44,4.44,0,0,1-.48,1.14,4.26,4.26,0,0,1-.74.95,5,5,0,0,1-1,.75,5.49,5.49,0,0,1-1.14.48,4.79,4.79,0,0,1-2.53,0,5.41,5.41,0,0,1-1.13-.48,4.94,4.94,0,0,1-1.7-1.7,5.41,5.41,0,0,1-.48-1.13,4.79,4.79,0,0,1,0-2.53A5.49,5.49,0,0,1,254,3.66a5.34,5.34,0,0,1,.74-1,4.56,4.56,0,0,1,1-.74,4.52,4.52,0,0,1,1.13-.48,4.86,4.86,0,0,1,1.27-.17m0-1.31a5.81,5.81,0,0,0-1.62.22A5.94,5.94,0,0,0,255,.83a6.16,6.16,0,0,0-1.22,1A5.89,5.89,0,0,0,252.84,3a6.64,6.64,0,0,0-.61,1.45,6,6,0,0,0,0,3.23,6.36,6.36,0,0,0,.61,1.44,6.16,6.16,0,0,0,.95,1.22,6.56,6.56,0,0,0,1.22.95,6.36,6.36,0,0,0,1.44.61,6,6,0,0,0,3.23,0,6.64,6.64,0,0,0,1.45-.61,5.64,5.64,0,0,0,1.22-.95,6.16,6.16,0,0,0,.95-1.22,5.94,5.94,0,0,0,.61-1.44,5.86,5.86,0,0,0,.22-1.62,5.79,5.79,0,0,0-.22-1.61A6.19,6.19,0,0,0,263.3,3a5.89,5.89,0,0,0-.95-1.22,5.64,5.64,0,0,0-1.22-.95,6.19,6.19,0,0,0-1.45-.61A5.79,5.79,0,0,0,258.07,0Z" fill="#11173d"/><path d="M5,66.09l.12.29.11-.3a2.44,2.44,0,0,1,.14-.28l2.68-4.87a.33.33,0,0,1,.15-.16l.22,0h.8v7.92H8.3V62.85c0-.08,0-.16,0-.25a2.45,2.45,0,0,1,0-.27l-2.72,5a.4.4,0,0,1-.38.25H5.07a.42.42,0,0,1-.39-.25l-2.77-5c0,.1,0,.19,0,.28a2.44,2.44,0,0,1,0,.26v5.82H1V60.75h.79l.22,0a.29.29,0,0,1,.15.16L4.9,65.81C4.94,65.9,5,66,5,66.09Z" fill="#11173d"/><path d="M25.12,68.67h-.83a.35.35,0,0,1-.23-.07.38.38,0,0,1-.13-.18l-.75-1.92H19.63l-.74,1.92a.41.41,0,0,1-.13.17.36.36,0,0,1-.23.08H17.7l3.17-7.92H22Zm-5.19-2.94h3l-1.25-3.22c0-.1-.08-.21-.12-.34s-.07-.26-.12-.4c0,.14-.07.28-.11.41s-.08.24-.12.33Z" fill="#11173d"/><path d="M38.53,68.55a5,5,0,0,1-1.49.21,4.7,4.7,0,0,1-1.72-.3A3.62,3.62,0,0,1,34,67.63a3.52,3.52,0,0,1-.84-1.28,4.31,4.31,0,0,1-.29-1.64,4.61,4.61,0,0,1,.28-1.65A3.59,3.59,0,0,1,34,61.78,3.63,3.63,0,0,1,35.25,61a4.7,4.7,0,0,1,1.68-.29,4.79,4.79,0,0,1,.87.07,3.91,3.91,0,0,1,1.39.51,4.34,4.34,0,0,1,.54.42l-.3.49a.33.33,0,0,1-.19.14.31.31,0,0,1-.25-.06l-.3-.18a2.73,2.73,0,0,0-.42-.22,4.58,4.58,0,0,0-.58-.17,3.68,3.68,0,0,0-.79-.07,3.11,3.11,0,0,0-1.21.22,2.49,2.49,0,0,0-.93.62,2.7,2.7,0,0,0-.58,1A3.71,3.71,0,0,0,34,64.71a4,4,0,0,0,.21,1.34,3.05,3.05,0,0,0,.61,1,2.76,2.76,0,0,0,1,.63,3.64,3.64,0,0,0,1.27.21,4.41,4.41,0,0,0,.52,0,3.4,3.4,0,0,0,.46-.09,3,3,0,0,0,.42-.15,3.89,3.89,0,0,0,.42-.19V65.68H37.6a.21.21,0,0,1-.16-.06.18.18,0,0,1-.07-.15v-.61H39.8v3A4.49,4.49,0,0,1,38.53,68.55Z" fill="#11173d"/><path d="M49.53,60.76l.09,0,.08.06.08.09,4.58,6a2.46,2.46,0,0,0,0-.28V60.75h.94v7.92h-.54a.41.41,0,0,1-.21,0,.47.47,0,0,1-.17-.15l-4.59-6a2.45,2.45,0,0,1,0,.27c0,.09,0,.17,0,.25v5.64h-.94V60.75h.67Z" fill="#11173d"/><path d="M65.78,68.67H64.71V60.75h1.07Z" fill="#11173d"/><path d="M80.09,60.75v.87h-3.8v2.77h3.25v.87H76.29v3.41H75.21V60.75Z" fill="#11173d"/><path d="M90,68.67H88.87V60.75H90Z" fill="#11173d"/><path d="M104.26,60.75v.87h-3.81v2.63h3.09v.84h-3.09V67.8h3.82v.87H99.38V60.75Z" fill="#11173d"/><path d="M120,64.71a4.37,4.37,0,0,1-.28,1.62,3.53,3.53,0,0,1-.8,1.25,3.47,3.47,0,0,1-1.23.81,4.3,4.3,0,0,1-1.6.28h-2.95V60.75h2.95a4.3,4.3,0,0,1,1.6.28,3.47,3.47,0,0,1,1.23.81,3.62,3.62,0,0,1,.8,1.25A4.45,4.45,0,0,1,120,64.71Zm-1.1,0a4,4,0,0,0-.2-1.3,2.77,2.77,0,0,0-.56-1,2.41,2.41,0,0,0-.89-.6,3,3,0,0,0-1.16-.21h-1.88V67.8h1.88a3,3,0,0,0,1.16-.21,2.41,2.41,0,0,0,.89-.6,2.81,2.81,0,0,0,.56-1A4.1,4.1,0,0,0,118.94,64.71Z" fill="#11173d"/><path d="M144.12,60.75v.87h-3.81v2.63h3.08v.84h-3.08V67.8h3.81v.87h-4.89V60.75Z" fill="#11173d"/><path d="M157,60.75v.87h-3.81v2.77h3.25v.87h-3.25v3.41h-1.08V60.75Z" fill="#11173d"/><path d="M169.8,60.75v.87H166v2.77h3.26v.87H166v3.41h-1.07V60.75Z" fill="#11173d"/><path d="M178.77,68.67H177.7V60.75h1.07Z" fill="#11173d"/><path d="M192.88,67a.23.23,0,0,1,.16.08l.42.45a3.32,3.32,0,0,1-1.18.88,4,4,0,0,1-1.68.32,3.85,3.85,0,0,1-1.54-.3,3.24,3.24,0,0,1-1.19-.83,3.8,3.8,0,0,1-.77-1.28,4.74,4.74,0,0,1-.27-1.64,4.56,4.56,0,0,1,.29-1.64,3.55,3.55,0,0,1,.79-1.28,3.6,3.6,0,0,1,1.22-.84,4.23,4.23,0,0,1,1.58-.29,3.85,3.85,0,0,1,1.49.27,3.8,3.8,0,0,1,1.14.74l-.35.49-.09.09a.26.26,0,0,1-.14,0,.4.4,0,0,1-.24-.1,2.09,2.09,0,0,0-.38-.24,2.83,2.83,0,0,0-1.44-.35,2.9,2.9,0,0,0-1.12.21,2.47,2.47,0,0,0-.88.62,2.94,2.94,0,0,0-.57,1,4.14,4.14,0,0,0-.2,1.31,3.81,3.81,0,0,0,.21,1.32,2.86,2.86,0,0,0,.58,1,2.53,2.53,0,0,0,.87.62,2.74,2.74,0,0,0,1.08.21,4.06,4.06,0,0,0,.64,0,2.09,2.09,0,0,0,.52-.13,1.88,1.88,0,0,0,.45-.22,3,3,0,0,0,.41-.32A.3.3,0,0,1,192.88,67Z" fill="#11173d"/><path d="M202.3,68.67h-1.07V60.75h1.07Z" fill="#11173d"/><path d="M215.73,60.75v.87h-3.81v2.63H215v.84h-3.09V67.8h3.82v.87h-4.88V60.75Z" fill="#11173d"/><path d="M224.44,60.76l.09,0s.05,0,.07.06a.38.38,0,0,1,.09.09l4.58,6c0-.1,0-.19,0-.28a2.35,2.35,0,0,1,0-.26V60.75h.94v7.92h-.54a.46.46,0,0,1-.21,0,.57.57,0,0,1-.17-.15l-4.58-6c0,.09,0,.18,0,.27v5.89h-.94V60.75h.68Z" fill="#11173d"/><path d="M244.29,67a.23.23,0,0,1,.16.08l.42.45a3.32,3.32,0,0,1-1.18.88,4,4,0,0,1-1.68.32,3.93,3.93,0,0,1-1.55-.3,3.28,3.28,0,0,1-1.18-.83,3.65,3.65,0,0,1-.77-1.28,4.74,4.74,0,0,1-.27-1.64,4.56,4.56,0,0,1,.29-1.64,3.55,3.55,0,0,1,.79-1.28,3.6,3.6,0,0,1,1.22-.84,4.23,4.23,0,0,1,1.58-.29,3.85,3.85,0,0,1,1.49.27,3.8,3.8,0,0,1,1.14.74l-.35.49-.09.09a.26.26,0,0,1-.14,0,.4.4,0,0,1-.24-.1,2.51,2.51,0,0,0-.38-.24,2.83,2.83,0,0,0-1.44-.35,2.9,2.9,0,0,0-1.12.21,2.47,2.47,0,0,0-.88.62,2.94,2.94,0,0,0-.57,1,4.14,4.14,0,0,0-.2,1.31,3.81,3.81,0,0,0,.21,1.32,2.71,2.71,0,0,0,.58,1,2.44,2.44,0,0,0,.87.62,2.74,2.74,0,0,0,1.08.21,4.06,4.06,0,0,0,.64,0,2.09,2.09,0,0,0,.52-.13,1.88,1.88,0,0,0,.45-.22,3,3,0,0,0,.41-.32A.3.3,0,0,1,244.29,67Z" fill="#11173d"/><path d="M255.62,65.51v3.16h-1.08V65.51l-2.9-4.76h.94a.33.33,0,0,1,.23.07A.54.54,0,0,1,253,61l1.81,3.08a4,4,0,0,1,.18.36,2.33,2.33,0,0,1,.14.33c0-.11.09-.22.14-.33a4,4,0,0,1,.18-.36L257.21,61a.59.59,0,0,1,.14-.18.31.31,0,0,1,.22-.07h.95Z" fill="#11173d"/></svg>